<svg xmlns="http://www.w3.org/2000/svg" version="1.0" width="2504.000000pt" height="637.000000pt" viewBox="0 0 2504.000000 637.000000" preserveAspectRatio="xMidYMid meet">

<g transform="translate(0.000000,637.000000) scale(0.100000,-0.100000)" fill="#33257f" stroke="none">
<path d="M2765 5939 c-16 -11 -546 -317 -1177 -680 -1123 -648 -1148 -662 -1158 -698 -11 -40 -12 -2704 -1 -2755 5 -26 29 -43 184 -133 98 -57 182 -103 185 -103 4 0 227 604 497 1343 670 1839 638 1753 667 1781 13 14 37 30 52 36 17 6 142 10 324 10 316 0 326 -1 352 -50 8 -14 -125 -386 -620 -1742 -346 -947 -633 -1730 -636 -1738 -4 -8 -8 -22 -9 -30 -1 -8 -30 -90 -64 -182 -61 -163 -62 -167 -43 -185 10 -10 25 -19 33 -21 8 -2 19 -10 25 -17 6 -8 14 -12 17 -8 4 3 9 -2 13 -11 3 -9 10 -13 15 -11 4 3 17 -3 29 -15 11 -11 20 -17 20 -12 0 4 6 0 13 -8 12 -15 51 -24 42 -10 -7 11 1432 3949 1453 3979 9 13 20 22 24 20 4 -2 14 5 22 16 14 19 29 20 333 25 l318 5 29 -28 29 -28 -722 -1978 c-396 -1088 -721 -1985 -721 -1992 0 -8 48 -41 107 -74 58 -33 174 -99 256 -147 162 -95 196 -104 245 -70 15 10 132 79 260 152 127 73 232 139 232 147 0 7 -88 252 -195 543 -107 291 -195 540 -195 553 0 12 69 213 154 446 116 319 161 430 182 452 33 35 44 36 71 7 11 -13 154 -387 317 -832 163 -446 298 -811 300 -813 5 -5 216 119 216 127 0 4 -164 459 -365 1011 -201 552 -365 1015 -365 1029 0 41 307 870 332 897 27 29 63 30 82 1 8 -13 222 -594 476 -1293 254 -698 465 -1274 469 -1278 9 -9 351 186 363 207 4 8 7 643 6 1412 l-3 1398 -1124 647 c-618 357 -1151 664 -1184 683 -69 41 -115 45 -162 15z" fill="#33257f"/>
<path d="M7989 4001 c-59 -11 -96 -31 -136 -73 -44 -46 -833 -1493 -833 -1528 0 -37 15 -40 185 -40 222 0 196 -16 299 176 l88 164 541 -2 542 -3 85 -157 c101 -187 86 -178 292 -178 154 0 191 8 186 43 -2 12 -185 350 -408 752 -431 776 -453 811 -535 834 -53 15 -248 22 -306 12z m338 -673 c98 -183 179 -338 181 -345 3 -10 -74 -13 -382 -13 -212 0 -386 3 -386 6 0 3 82 158 182 345 154 287 186 339 204 339 19 0 50 -51 201 -332z" fill="#33257f"/>
<path d="M9645 4002 c-57 -13 -55 11 -52 -844 1 -432 6 -790 10 -795 5 -4 80 -9 166 -11 136 -3 161 -1 175 13 14 14 16 48 16 261 l0 244 372 -2 373 -3 187 -245 c103 -135 195 -250 205 -257 12 -9 66 -13 189 -13 145 0 175 3 189 16 10 10 13 24 9 38 -4 11 -94 131 -201 265 l-195 244 59 18 c96 30 163 76 201 139 56 95 65 136 70 343 3 148 1 203 -12 260 -40 177 -119 264 -281 309 -78 21 -94 22 -765 24 -377 1 -698 -1 -715 -4z m1308 -356 c45 -19 87 -67 98 -112 12 -54 11 -191 -2 -238 -6 -21 -27 -56 -47 -78 -32 -34 -45 -40 -102 -49 -38 -5 -249 -8 -500 -7 l-435 3 -3 235 c-1 129 0 240 2 247 8 20 943 19 989 -1z" fill="#33257f"/>
<path d="M12015 4002 c-17 -4 -35 -18 -42 -32 -10 -19 -13 -195 -13 -796 0 -745 1 -773 19 -795 l19 -24 733 -3 c811 -3 863 0 964 57 101 56 145 182 145 415 0 179 -19 245 -94 322 l-52 54 39 37 c73 71 97 147 97 309 0 131 -11 198 -46 273 -31 70 -56 96 -116 127 -113 57 -111 57 -898 60 -399 1 -738 -1 -755 -4z m1349 -333 c22 -6 52 -24 68 -39 27 -27 28 -32 28 -125 0 -96 0 -97 -33 -130 -24 -24 -46 -35 -78 -40 -24 -3 -262 -5 -529 -3 l-485 3 -3 160 c-1 87 0 165 2 172 7 17 969 19 1030 2z m33 -612 c50 -27 63 -62 63 -173 l0 -96 -39 -39 -39 -39 -526 0 -526 0 0 185 0 186 518 -3 c472 -3 520 -5 549 -21z" fill="#33257f"/>
<path d="M14428 4003 c-21 -3 -29 -11 -33 -36 -9 -50 -1 -1584 8 -1594 5 -4 83 -8 173 -8 136 0 166 3 174 15 13 20 13 1590 0 1610 -7 12 -37 15 -152 16 -79 1 -155 0 -170 -3z" fill="#33257f"/>
<path d="M15303 4003 c-16 -3 -24 -14 -29 -37 -8 -46 -1 -282 9 -293 5 -4 181 -9 393 -11 l384 -3 2 -639 c2 -351 7 -642 11 -647 5 -4 83 -8 173 -8 136 0 166 3 174 15 6 9 10 266 10 647 l0 632 384 3 c211 2 388 7 393 11 11 11 11 313 0 324 -9 8 -1863 14 -1904 6z" fill="#33257f"/>
<path d="M17738 4003 c-61 -10 -58 27 -58 -840 0 -790 0 -792 21 -803 24 -13 322 -10 336 3 4 5 9 121 11 258 l3 249 369 0 369 0 187 -246 c103 -135 197 -252 208 -260 16 -11 58 -14 187 -14 92 0 174 3 183 6 9 4 16 18 16 34 0 20 -48 88 -195 273 -107 135 -195 247 -195 250 0 3 21 10 46 16 157 40 244 143 274 323 15 97 12 327 -6 415 -37 180 -124 274 -296 320 -55 14 -149 16 -748 18 -377 2 -697 1 -712 -2z m1335 -376 c62 -47 69 -71 65 -221 -3 -128 -4 -134 -31 -169 -57 -74 -36 -72 -574 -75 l-483 -3 0 251 0 251 493 -3 494 -3 36 -28z" fill="#33257f"/>
<path d="M20018 4003 c-23 -4 -28 -10 -33 -47 -4 -24 -5 -283 -2 -577 5 -594 8 -622 72 -754 46 -94 83 -130 180 -177 145 -69 216 -79 645 -85 525 -7 744 13 880 82 59 30 135 112 165 178 60 131 59 120 63 770 3 566 2 598 -15 605 -23 9 -303 9 -325 0 -17 -7 -18 -42 -18 -532 0 -333 -4 -543 -11 -575 -16 -76 -60 -138 -115 -161 -43 -19 -71 -20 -500 -20 -388 0 -460 2 -492 15 -47 20 -78 50 -105 100 -22 39 -22 51 -27 602 -3 309 -9 565 -13 570 -9 9 -303 14 -349 6z" fill="#33257f"/>
<path d="M22688 4000 c-32 -5 -67 -14 -78 -20 -31 -17 -50 -64 -61 -153 -12 -99 -8 -1441 4 -1454 11 -11 323 -11 334 0 4 5 9 296 11 648 l2 639 23 0 c28 0 4 47 282 -570 280 -620 287 -633 389 -681 58 -27 68 -29 195 -29 76 0 151 5 175 12 48 15 146 110 176 173 10 22 123 272 250 555 128 283 238 521 245 529 7 7 20 11 29 8 14 -5 16 -79 18 -641 2 -349 7 -638 11 -643 11 -11 323 -11 334 0 12 12 16 1398 4 1474 -21 136 -46 152 -259 160 -156 6 -289 -7 -348 -34 -26 -12 -94 -89 -94 -106 0 -7 -478 -1114 -496 -1149 -19 -36 -60 -47 -83 -22 -10 11 -125 269 -257 574 -131 305 -254 581 -273 613 -39 66 -68 92 -120 108 -47 14 -339 20 -413 9z" fill="#33257f"/>
</g>
</svg>