<svg xmlns="http://www.w3.org/2000/svg" version="1.0" width="2500.000000pt" height="627.000000pt" viewBox="0 0 2500.000000 627.000000" preserveAspectRatio="xMidYMid meet">

<g transform="translate(0.000000,627.000000) scale(0.100000,-0.100000)" fill="#33257f" stroke="none">
<path d="M1906 6249 c7 -12 -21 -51 -31 -41 -5 4 -5 1 -1 -5 8 -14 -17 -57 -26 -47 -3 3 -5 -1 -4 -8 2 -21 -457 -777 -468 -771 -5 3 -6 1 -2 -5 9 -15 -18 -55 -29 -44 -5 4 -5 1 -1 -5 8 -14 -17 -57 -26 -47 -3 3 -5 -1 -5 -8 3 -21 -426 -727 -437 -721 -5 3 -6 1 -2 -5 9 -15 -18 -55 -29 -44 -5 4 -5 1 -1 -5 8 -14 -17 -57 -26 -47 -3 3 -5 -1 -5 -8 3 -21 -456 -777 -467 -771 -5 3 -6 1 -2 -5 9 -15 -18 -55 -29 -44 -5 4 -5 1 -1 -5 9 -16 -17 -56 -29 -45 -5 4 -5 2 -1 -5 3 -7 -55 -114 -134 -244 -77 -127 -140 -235 -140 -239 0 -5 21 -21 48 -36 26 -15 50 -31 53 -36 3 -6 9 -8 12 -6 4 1 15 -5 27 -14 11 -10 20 -16 20 -13 0 6 154 -87 161 -98 3 -5 9 -7 12 -5 4 1 15 -5 27 -14 11 -10 20 -16 20 -13 0 6 204 -117 211 -128 3 -5 10 -8 15 -8 5 1 17 -6 26 -14 10 -8 18 -13 18 -10 0 6 154 -87 161 -98 3 -5 9 -7 12 -5 4 1 15 -5 27 -14 11 -10 20 -16 20 -13 0 6 154 -87 161 -98 3 -5 9 -7 12 -5 4 1 15 -5 27 -14 11 -10 20 -16 20 -13 0 6 204 -117 211 -128 3 -5 9 -7 12 -5 4 1 15 -5 27 -14 11 -10 20 -16 20 -13 0 6 154 -87 161 -98 3 -5 9 -7 12 -5 4 1 15 -5 27 -14 11 -10 20 -16 20 -13 0 6 204 -116 211 -127 3 -5 10 -10 15 -10 5 1 32 -13 60 -29 l52 -29 53 35 c30 19 59 35 66 35 7 0 13 4 13 10 0 5 11 12 25 16 14 3 25 10 25 14 0 5 9 12 20 15 11 4 44 22 73 41 28 19 57 34 64 34 7 0 13 4 13 10 0 5 11 12 25 16 14 3 25 10 25 14 0 5 9 12 20 15 11 4 44 22 73 41 28 19 57 34 64 34 7 0 13 4 13 10 0 5 11 12 25 16 14 3 25 10 25 14 0 5 9 12 20 15 11 4 44 22 73 41 28 19 57 34 64 34 7 0 13 4 13 10 0 5 11 12 25 16 14 3 25 10 25 14 0 5 9 12 20 15 11 4 44 22 73 41 28 19 57 34 64 34 7 0 13 4 13 9 0 5 10 13 23 17 12 4 24 10 27 13 9 12 148 91 159 91 6 0 11 4 11 9 0 5 10 13 23 17 12 4 24 10 27 13 9 12 148 91 159 91 6 0 11 4 11 9 0 5 10 13 23 17 12 4 24 10 27 13 9 12 148 91 159 91 6 0 11 4 11 9 0 5 10 13 23 17 12 4 24 10 27 13 7 9 147 91 155 91 13 0 37 31 32 43 -2 6 -4 14 -4 17 1 3 -8 15 -18 28 -11 12 -18 25 -17 29 2 3 -1 9 -6 12 -10 6 -239 383 -250 411 -3 8 -12 21 -19 30 -7 8 -12 17 -11 20 1 3 -7 15 -17 28 -11 12 -18 24 -15 25 2 1 -5 12 -15 25 -11 12 -18 24 -15 25 2 1 -5 12 -15 25 -11 12 -18 25 -17 29 2 3 -1 9 -6 12 -10 6 -269 433 -280 461 -3 8 -12 21 -19 30 -7 8 -14 20 -15 25 -2 6 -9 18 -18 28 -8 10 -13 19 -10 20 2 1 -4 11 -13 22 -9 11 -16 22 -15 25 1 3 -7 15 -17 28 -11 12 -18 25 -17 29 2 3 -1 9 -6 12 -10 6 -239 383 -250 411 -3 8 -12 21 -19 30 -7 8 -12 17 -11 20 1 3 -7 15 -17 28 -11 12 -18 24 -15 25 2 1 -4 11 -13 22 -9 11 -16 22 -15 25 1 3 -6 14 -15 25 -9 11 -17 24 -16 29 0 5 -4 12 -9 15 -10 6 -269 433 -280 461 -3 8 -12 21 -19 30 -7 8 -12 17 -11 20 1 3 -6 14 -15 25 -9 11 -16 22 -15 25 1 3 -6 14 -15 25 -9 11 -18 25 -19 30 -2 6 -8 17 -15 25 -7 8 -13 19 -12 24 0 5 -4 12 -9 15 -10 6 -240 384 -250 411 -3 8 -12 22 -20 30 -16 16 -45 23 -36 9z" fill="#33257f"/>
<path d="M9985 5090 l-25 -26 0 -1640 0 -1641 23 -21 c30 -28 69 -28 101 1 l26 22 3 550 c3 535 5 574 34 645 4 8 7 18 8 23 2 4 3 8 4 10 2 1 5 13 7 27 2 13 10 28 17 32 6 4 8 8 4 8 -12 0 55 121 70 127 7 3 13 10 13 17 0 6 24 34 53 62 54 52 117 100 117 89 0 -4 7 0 15 8 38 38 260 85 340 72 22 -4 55 -9 72 -11 46 -6 143 -44 143 -55 0 -6 4 -8 9 -5 5 3 23 -7 40 -23 17 -16 37 -31 44 -34 19 -7 117 -139 111 -149 -3 -4 0 -8 6 -8 6 0 8 -4 5 -10 -3 -5 -1 -10 5 -10 6 0 8 -4 5 -10 -3 -5 -2 -10 2 -10 9 0 25 -38 51 -125 13 -41 17 -151 21 -642 5 -450 9 -595 18 -604 7 -7 32 -14 55 -15 35 -1 45 3 62 24 21 26 21 37 21 547 0 496 -7 685 -26 725 -1 3 -3 10 -4 15 -1 6 -7 23 -14 39 -6 16 -13 36 -14 45 -2 9 -18 44 -35 78 -18 35 -32 66 -31 69 0 3 -8 12 -18 20 -10 7 -14 14 -9 14 20 0 -183 187 -229 210 -27 13 -52 27 -55 30 -3 3 -13 6 -24 8 -10 2 -30 8 -45 14 -38 16 -54 18 -177 24 -118 7 -212 -10 -317 -55 -26 -11 -51 -21 -55 -23 -4 -1 -15 -9 -25 -18 -9 -9 -29 -23 -44 -31 -37 -19 -146 -133 -191 -198 l-37 -53 -5 920 c-5 870 -6 921 -23 940 -29 32 -72 33 -102 2z" fill="#33257f"/>
<path d="M8408 4229 c-10 -11 -18 -21 -18 -24 0 -3 0 -8 0 -12 0 -5 0 -144 0 -310 l1 -303 -209 0 c-198 0 -211 -1 -236 -21 -22 -18 -26 -28 -25 -63 2 -37 18 -67 34 -66 3 0 102 0 220 0 l215 0 0 -819 c0 -594 3 -826 11 -844 16 -36 70 -45 112 -18 18 11 31 23 30 26 -2 3 -3 376 -3 830 l0 825 223 0 c221 0 224 0 245 23 29 31 28 72 -3 102 l-24 25 -220 0 -220 0 -3 324 c-2 178 -7 328 -11 332 -4 5 -29 9 -55 10 -34 1 -52 -4 -64 -17z" fill="#33257f"/>
<path d="M6130 3617 c-3 -3 -30 -7 -60 -10 -30 -3 -88 -16 -127 -30 -40 -14 -73 -22 -73 -19 0 4 -4 3 -8 -3 -9 -13 -72 -48 -72 -41 0 3 -9 -2 -20 -12 -12 -9 -23 -16 -25 -14 -3 1 -14 -6 -24 -15 -11 -10 -58 -52 -105 -93 -46 -41 -85 -80 -85 -85 -1 -6 -14 -25 -30 -43 -17 -17 -28 -32 -25 -32 3 0 -4 -13 -16 -30 -17 -24 -91 -172 -95 -190 -8 -38 -19 -77 -23 -85 -3 -5 -7 -18 -8 -30 -1 -11 -7 -49 -13 -85 -39 -237 31 -523 178 -725 46 -62 147 -175 158 -175 6 0 86 -61 94 -73 3 -5 9 -8 13 -8 3 1 34 -13 69 -31 34 -17 67 -33 72 -34 6 -1 35 -9 65 -18 76 -24 110 -28 225 -28 91 0 145 4 215 17 46 8 55 11 65 16 6 4 28 12 50 19 21 7 62 23 90 35 27 12 54 23 59 23 5 0 12 4 15 9 9 12 81 65 81 59 0 -3 29 25 65 61 83 84 140 170 136 203 -6 49 -74 93 -100 67 -6 -6 -11 -7 -11 -3 0 5 -16 -13 -36 -40 -49 -65 -145 -164 -160 -164 -7 0 -14 -6 -17 -13 -5 -15 -147 -93 -147 -81 0 3 -6 2 -12 -4 -69 -55 -382 -68 -498 -19 -14 6 -28 11 -31 11 -19 3 -109 51 -109 58 0 5 -5 6 -10 3 -6 -3 -13 1 -16 9 -3 9 -10 13 -15 11 -4 -3 -14 3 -21 15 -7 11 -18 20 -23 20 -15 0 -95 83 -95 98 0 7 -4 12 -10 12 -11 0 -74 90 -63 90 4 0 3 4 -3 8 -13 8 -67 112 -59 112 3 0 -1 10 -9 23 -14 22 -38 105 -50 179 l-7 38 786 2 787 3 25 29 c23 27 24 35 20 105 -7 94 -21 162 -55 266 -14 44 -25 83 -24 88 1 4 -2 7 -7 7 -8 0 -32 47 -34 67 0 4 -9 17 -19 27 -9 10 -15 23 -12 28 3 4 0 8 -5 8 -6 0 -11 4 -11 9 0 6 -16 27 -35 48 -19 21 -35 41 -35 44 0 7 -90 99 -97 99 -6 0 -96 72 -104 83 -3 5 -9 8 -13 8 -3 -1 -34 13 -69 31 -34 17 -66 33 -72 34 -5 1 -46 12 -89 23 -76 20 -265 39 -276 28z m234 -177 c86 -22 202 -79 248 -122 16 -15 34 -28 38 -28 21 0 173 -200 173 -227 0 -7 4 -13 9 -13 5 0 6 -4 3 -10 -3 -5 -2 -10 3 -10 18 0 81 -208 82 -267 l0 -23 -726 0 -726 0 7 28 c4 15 9 40 11 56 11 91 96 283 150 341 13 14 24 29 24 33 0 12 104 112 117 112 7 0 13 4 13 9 0 11 71 57 83 53 4 -1 7 2 7 7 0 11 97 51 164 67 81 20 231 17 320 -6z" fill="#33257f"/>
<path d="M13215 3609 c-32 -5 -84 -16 -115 -25 -30 -9 -59 -17 -65 -18 -5 -1 -39 -17 -75 -36 -36 -19 -68 -33 -72 -32 -5 1 -8 -3 -8 -8 0 -5 -4 -10 -9 -10 -6 0 -27 -16 -48 -35 -21 -19 -41 -35 -44 -35 -7 0 -89 -80 -89 -86 0 -1 -23 -33 -50 -70 -128 -168 -197 -383 -193 -604 1 -63 4 -131 8 -150 4 -19 8 -44 10 -55 2 -11 4 -22 6 -25 1 -3 3 -9 4 -15 1 -5 6 -19 10 -30 4 -11 21 -54 36 -95 16 -42 42 -97 59 -123 16 -26 26 -47 22 -47 -4 0 1 -5 11 -11 9 -6 15 -14 12 -20 -4 -5 -1 -9 5 -9 6 0 13 -7 16 -15 10 -24 126 -139 190 -186 32 -24 62 -48 65 -52 3 -5 8 -8 10 -7 6 3 83 -34 90 -43 3 -5 8 -8 10 -6 4 2 63 -15 99 -28 8 -3 29 -7 45 -9 17 -2 41 -8 55 -12 42 -13 240 -5 325 13 44 9 87 19 95 20 8 2 16 4 18 5 1 2 5 3 10 4 4 1 42 18 85 38 43 21 80 37 82 37 3 0 15 10 27 21 12 11 27 20 32 20 6 0 17 9 24 20 7 11 16 20 21 20 8 0 101 89 101 96 0 2 15 25 34 51 45 64 50 86 31 126 -12 27 -22 33 -49 35 -43 3 -86 -13 -86 -32 0 -8 -16 -31 -35 -52 -19 -20 -35 -40 -35 -44 0 -9 -44 -50 -54 -50 -5 0 -17 -11 -28 -25 -11 -14 -24 -23 -29 -20 -5 4 -9 2 -9 -4 0 -11 -60 -47 -72 -43 -5 1 -8 -3 -8 -9 0 -5 -4 -7 -10 -4 -5 3 -10 2 -10 -3 0 -10 -112 -49 -175 -60 -51 -8 -249 -9 -297 0 -60 11 -118 30 -118 40 0 4 -3 7 -7 6 -13 -4 -73 24 -73 34 0 5 -4 7 -9 4 -5 -3 -21 6 -35 19 -15 14 -30 25 -33 25 -13 0 -173 172 -168 180 3 4 -2 11 -11 14 -8 3 -12 10 -9 16 3 5 2 10 -3 10 -25 0 -122 264 -122 332 l0 28 780 2 780 3 26 27 c21 20 27 36 27 70 -1 73 -14 159 -40 248 -14 47 -26 90 -27 95 -4 17 -67 138 -88 168 -11 15 -17 27 -14 27 3 0 -8 15 -25 32 -16 18 -29 35 -29 39 0 6 -127 136 -139 141 -19 9 -127 84 -129 91 -2 4 -8 5 -13 1 -5 -3 -9 0 -9 6 0 6 -4 8 -10 5 -5 -3 -10 -1 -10 4 0 6 -3 10 -7 9 -5 -1 -46 11 -93 26 -133 43 -247 53 -375 35z m275 -164 c8 -5 21 -10 28 -11 8 -2 21 -6 30 -10 9 -4 20 -8 23 -8 19 -3 109 -51 109 -58 0 -5 5 -6 10 -3 6 3 13 -1 16 -9 3 -9 10 -13 15 -11 4 3 14 -3 21 -15 7 -11 18 -20 23 -20 15 0 95 -83 95 -98 0 -7 4 -12 10 -12 11 0 74 -90 63 -90 -4 0 -3 -4 3 -8 15 -9 57 -92 47 -92 -5 0 -2 -4 4 -8 7 -4 15 -19 17 -32 2 -14 5 -26 7 -27 1 -2 2 -6 4 -10 1 -5 5 -15 8 -23 11 -25 26 -103 27 -132 l0 -28 -725 0 -725 0 4 23 c18 85 29 133 35 142 3 6 6 13 7 18 1 4 2 8 3 10 2 1 5 13 7 27 2 13 8 27 12 30 4 3 8 12 10 20 6 27 73 140 83 140 6 0 8 4 5 8 -7 11 112 142 129 142 7 0 15 6 18 14 6 15 107 80 107 68 0 -4 4 -1 9 6 9 14 149 65 160 58 4 -3 13 -1 21 5 19 11 260 7 280 -6z" fill="#33257f"/>
<path d="M17625 3609 c-32 -5 -84 -16 -115 -25 -30 -9 -59 -17 -65 -18 -5 -1 -38 -17 -72 -34 -35 -18 -66 -32 -69 -31 -4 0 -10 -3 -13 -8 -8 -11 -98 -83 -104 -83 -8 0 -87 -82 -87 -90 0 -5 -11 -17 -25 -28 -14 -11 -25 -23 -25 -27 0 -3 -14 -27 -31 -51 -17 -25 -48 -82 -69 -127 -111 -237 -126 -510 -41 -752 11 -30 16 -55 13 -55 -4 0 -2 -4 3 -8 6 -4 20 -28 32 -54 13 -27 35 -67 50 -90 14 -24 26 -45 25 -48 0 -3 6 -9 14 -13 8 -4 14 -12 14 -17 0 -14 122 -133 185 -180 33 -25 63 -49 66 -53 3 -5 8 -8 10 -7 6 3 83 -34 90 -43 3 -5 8 -8 10 -6 4 2 63 -15 99 -28 8 -3 29 -7 45 -9 17 -2 41 -8 55 -12 42 -13 240 -5 325 13 44 9 87 19 95 20 8 2 16 4 18 5 1 2 5 3 10 4 4 1 42 18 85 38 43 21 80 37 82 37 3 0 15 10 27 21 12 11 27 20 32 20 6 0 17 9 24 20 7 11 18 20 25 21 18 1 123 126 153 184 26 49 26 52 10 86 -13 28 -23 35 -48 37 -39 3 -88 -16 -88 -33 0 -13 -51 -75 -100 -122 -58 -56 -66 -63 -78 -63 -7 0 -12 -4 -12 -10 0 -10 -60 -45 -72 -42 -5 1 -8 -3 -8 -9 0 -5 -4 -7 -10 -4 -5 3 -10 2 -10 -3 0 -12 -111 -48 -193 -62 -63 -11 -213 -9 -284 3 -55 10 -113 30 -113 39 0 4 -3 7 -7 6 -13 -4 -73 24 -73 34 0 5 -4 7 -9 4 -5 -3 -21 6 -35 19 -15 14 -30 25 -34 25 -6 0 -22 14 -70 62 -72 71 -125 142 -115 151 3 4 2 7 -4 7 -26 0 -123 260 -123 331 l0 29 779 2 779 3 27 25 c27 25 27 27 22 125 -5 100 -36 229 -77 322 -10 23 -16 44 -12 47 3 3 0 6 -7 6 -7 0 -9 5 -6 10 3 6 2 10 -3 10 -7 0 -31 41 -35 60 0 3 -9 14 -19 24 -10 11 -18 24 -18 28 0 18 -235 243 -253 243 -3 0 -15 7 -25 15 -10 8 -23 16 -28 17 -5 1 -40 15 -79 32 -113 48 -106 46 -220 61 -90 11 -135 11 -220 -1z m255 -161 c52 -9 140 -41 140 -50 0 -5 5 -6 10 -3 6 3 10 1 10 -6 0 -7 3 -10 6 -6 18 17 234 -157 234 -189 0 -8 4 -14 9 -14 13 0 86 -118 114 -186 28 -67 44 -122 51 -176 2 -20 7 -46 11 -58 l6 -20 -726 0 -727 0 6 43 c7 51 13 82 16 82 1 0 4 13 6 29 3 16 10 39 17 50 6 12 12 23 12 26 9 35 19 60 24 60 4 0 8 6 8 13 0 31 160 247 183 247 4 0 22 13 38 28 32 30 172 108 172 96 0 -3 6 -1 13 5 8 6 22 12 33 14 10 1 25 6 32 10 6 5 16 6 20 3 4 -2 14 0 22 5 14 9 206 7 260 -3z" fill="#33257f"/>
<path d="M24154 3598 c-96 -19 -192 -61 -275 -119 -57 -40 -121 -98 -144 -131 -43 -61 -106 -160 -116 -182 -16 -35 -25 -33 -39 8 -6 18 -26 59 -45 90 -18 31 -31 56 -28 56 3 0 -5 9 -18 20 -13 10 -21 19 -17 20 13 0 -117 116 -163 146 -24 16 -47 33 -51 39 -4 5 -8 7 -8 2 0 -4 -15 0 -32 10 -18 9 -35 18 -38 18 -3 1 -40 9 -84 19 -61 15 -101 17 -185 12 -110 -6 -135 -9 -161 -19 -8 -4 -40 -15 -70 -27 -31 -11 -79 -34 -107 -52 -64 -41 -179 -138 -187 -158 -3 -8 -24 -40 -46 -70 l-41 -55 2 147 c0 81 -2 151 -6 157 -3 6 -3 11 2 11 4 0 -5 9 -22 20 -40 27 -69 25 -102 -6 l-28 -25 5 -876 5 -876 27 -20 c36 -27 95 -17 108 19 6 14 10 231 10 502 1 263 5 507 11 542 5 36 12 79 14 96 9 60 47 169 83 239 38 74 157 205 186 205 9 0 16 4 16 9 0 10 110 60 147 66 16 3 55 10 88 16 57 10 130 8 220 -5 49 -7 184 -72 192 -92 3 -8 11 -14 17 -14 16 0 66 -52 66 -68 0 -7 5 -12 10 -12 6 0 14 -8 17 -17 4 -9 13 -24 20 -33 7 -8 12 -18 11 -21 -2 -3 5 -13 15 -23 9 -10 15 -22 12 -27 -4 -5 -2 -9 3 -9 8 0 29 -52 36 -90 2 -8 6 -22 9 -30 17 -45 19 -122 18 -626 -2 -487 0 -556 14 -591 13 -32 23 -42 46 -47 17 -3 39 -1 50 4 10 6 19 7 19 3 0 -4 6 1 13 12 9 15 14 144 18 475 3 250 9 478 12 505 10 69 28 158 35 170 4 6 8 19 9 30 5 30 36 109 46 116 5 3 8 9 7 13 -4 12 22 66 31 66 5 0 8 3 7 8 -4 11 42 82 53 82 6 0 8 4 5 9 -13 20 167 165 216 175 7 2 27 9 43 16 17 7 63 17 103 23 77 12 190 1 247 -24 17 -7 32 -13 35 -14 31 -8 50 -18 50 -26 0 -6 4 -8 9 -5 5 3 24 -8 42 -25 18 -16 40 -34 51 -40 10 -5 18 -15 18 -22 0 -7 9 -18 20 -25 11 -7 20 -18 20 -26 0 -8 7 -17 16 -20 8 -3 12 -10 9 -16 -3 -5 -2 -10 3 -10 8 0 46 -73 47 -90 1 -3 6 -14 12 -26 7 -11 13 -31 15 -45 2 -13 7 -29 10 -35 21 -32 28 -222 28 -698 -1 -505 0 -520 19 -540 27 -27 75 -25 107 5 l25 23 -4 586 c-2 322 -7 596 -10 610 -3 14 -10 40 -16 58 -5 17 -7 32 -4 32 3 0 1 6 -4 13 -12 14 -38 89 -35 100 1 4 -2 7 -7 7 -10 0 -21 27 -20 44 0 5 -3 12 -8 15 -10 7 -43 58 -43 66 0 3 -8 13 -17 23 -10 10 -40 42 -66 70 -26 29 -50 52 -52 52 -5 0 -96 61 -105 70 -3 3 -9 6 -15 8 -5 1 -44 14 -85 28 -103 36 -247 45 -356 22z" fill="#33257f"/>
<path d="M15254 3555 l-24 -24 0 -878 c1 -721 3 -880 14 -890 8 -6 17 -9 20 -6 3 4 6 2 6 -3 0 -18 68 -3 88 20 20 20 21 38 25 486 3 384 7 477 21 535 9 39 19 77 22 85 4 8 9 24 10 35 6 32 94 205 104 205 6 0 10 6 10 13 0 18 99 127 115 127 7 0 15 7 19 15 3 8 12 15 20 15 7 0 17 7 20 16 3 8 10 12 16 9 5 -3 10 -2 10 3 0 9 104 62 130 65 8 2 20 6 26 10 7 4 45 14 85 22 55 11 80 22 97 41 29 33 28 69 -3 99 -29 29 -85 33 -177 11 -32 -7 -58 -12 -58 -10 0 8 -154 -75 -205 -111 -70 -50 -189 -171 -231 -234 l-29 -45 -5 188 c-5 182 -6 188 -29 207 -32 26 -67 24 -97 -6z" fill="#33257f"/>
<path d="M19655 3558 c-48 -28 -46 -3 -42 -615 3 -465 7 -590 19 -638 17 -71 18 -73 29 -104 5 -13 11 -31 12 -40 5 -28 58 -123 102 -186 46 -66 168 -183 200 -194 6 -2 28 -13 50 -24 22 -11 45 -22 50 -23 6 -1 39 -10 75 -20 99 -27 255 -25 350 5 41 13 91 31 110 41 19 10 40 19 45 21 39 13 197 172 245 248 25 38 48 70 53 70 4 1 7 -71 7 -159 0 -157 1 -161 25 -185 31 -32 68 -32 102 1 l28 25 -2 871 -3 871 -22 24 c-29 31 -72 30 -103 -2 l-25 -24 0 -353 c0 -391 -5 -541 -20 -632 -6 -34 -13 -77 -16 -96 -7 -49 -33 -148 -49 -188 -8 -18 -14 -35 -14 -37 0 -13 -65 -125 -72 -125 -5 0 -9 -7 -9 -15 0 -9 -7 -18 -15 -21 -8 -4 -15 -11 -15 -17 0 -13 -50 -67 -61 -67 -5 0 -20 -11 -35 -25 -15 -14 -29 -23 -32 -21 -2 3 -11 -1 -19 -9 -24 -25 -145 -57 -235 -62 -87 -6 -193 8 -233 30 -11 6 -26 12 -33 13 -48 8 -230 173 -216 195 3 5 1 9 -4 9 -12 0 -55 90 -83 175 -23 69 -24 76 -29 658 l-5 589 -28 24 c-31 26 -52 29 -82 12z" fill="#33257f"/>
<path d="M3828 2712 c-5 -12 -158 -103 -158 -94 0 4 -4 2 -8 -4 -9 -13 -162 -106 -162 -98 0 3 -7 -2 -16 -10 -8 -9 -21 -16 -29 -16 -7 0 -15 -4 -17 -8 -5 -12 -158 -103 -158 -94 0 4 -4 2 -8 -4 -9 -13 -162 -106 -162 -98 0 3 -7 -2 -16 -10 -8 -9 -21 -16 -29 -16 -7 0 -15 -4 -17 -8 -4 -10 -108 -74 -108 -66 0 3 -7 -2 -16 -10 -8 -9 -21 -16 -29 -16 -7 0 -15 -4 -17 -8 -5 -12 -158 -103 -158 -94 0 4 -4 2 -8 -4 -8 -12 -162 -106 -162 -99 0 3 -9 -3 -20 -13 -12 -9 -23 -15 -27 -14 -3 2 -9 0 -12 -5 -9 -14 -161 -103 -161 -95 0 4 -4 2 -8 -4 -8 -12 -162 -106 -162 -99 0 3 -8 -2 -17 -10 -10 -8 -22 -15 -27 -14 -5 0 -12 -3 -15 -8 -11 -16 -159 -102 -165 -96 -3 4 -6 1 -6 -6 0 -7 -6 -11 -13 -9 -27 6 -386 222 -382 229 3 4 -1 6 -8 5 -17 -2 -217 116 -212 125 3 3 -1 6 -8 5 -17 -2 -217 116 -212 125 3 3 -1 6 -8 5 -17 -2 -387 216 -382 225 3 4 -1 6 -8 5 -17 -2 -217 116 -212 125 3 3 -1 6 -8 5 -20 -2 -217 117 -210 127 3 6 1 7 -5 3 -5 -3 -59 23 -119 58 -59 35 -109 63 -111 61 -2 -1 15 -29 37 -60 22 -32 38 -62 35 -67 -3 -4 -1 -7 5 -6 13 4 222 -292 215 -304 -3 -5 -1 -7 5 -6 14 4 172 -222 164 -235 -3 -5 -1 -7 4 -4 11 7 46 -39 46 -60 0 -6 4 -11 8 -10 12 3 170 -224 163 -234 -3 -5 -1 -8 5 -7 13 4 223 -291 215 -303 -3 -5 -1 -8 5 -7 13 4 222 -292 215 -304 -3 -5 -1 -7 5 -6 14 4 172 -222 164 -235 -3 -5 -1 -7 4 -4 11 7 46 -39 46 -60 0 -6 4 -11 8 -10 13 3 169 -224 162 -236 -3 -5 -1 -7 4 -4 11 7 46 -39 46 -60 0 -6 4 -11 8 -10 13 3 169 -224 162 -236 -3 -5 -2 -7 4 -4 5 3 43 -41 84 -99 73 -104 74 -105 89 -82 8 12 23 31 33 40 9 10 17 22 17 27 0 4 11 20 25 35 14 15 25 31 25 35 0 4 11 20 25 35 13 14 24 27 22 29 -4 5 107 157 115 157 4 0 8 6 8 14 0 7 11 25 25 40 14 15 25 31 25 35 0 4 11 20 25 35 14 15 25 29 25 32 0 10 155 224 162 224 4 0 8 6 8 14 0 7 11 25 25 40 14 15 25 31 25 35 0 4 11 20 25 35 14 15 25 29 25 32 0 11 104 154 112 154 4 0 8 6 8 14 0 7 11 25 25 40 14 15 25 31 25 35 0 4 11 20 25 35 14 15 25 31 25 35 0 4 11 20 25 35 13 14 25 30 26 34 3 15 103 152 111 152 4 0 8 6 8 14 0 7 11 25 25 40 14 15 25 31 25 35 0 4 11 20 25 35 14 15 25 29 25 32 0 10 155 224 162 224 4 0 8 6 8 14 0 7 11 25 25 40 14 15 25 31 25 35 0 4 11 20 25 35 14 15 25 29 25 32 0 11 104 154 112 154 4 0 8 6 8 14 0 7 11 25 25 40 14 15 25 31 25 35 0 4 11 20 25 35 14 15 25 31 25 35 0 4 10 19 23 32 12 14 23 28 24 32 5 17 107 157 115 157 4 0 8 6 8 14 0 7 11 25 25 40 14 15 25 31 25 35 0 4 11 20 24 34 23 25 43 67 33 67 -3 0 -7 -4 -9 -8z" fill="#33257f"/>
</g>
</svg>