<svg xmlns="http://www.w3.org/2000/svg" version="1.0" width="1000.000000pt" height="251.000000pt" viewBox="0 0 1000.000000 251.000000" preserveAspectRatio="xMidYMid meet">

<g transform="translate(0.000000,251.000000) scale(0.100000,-0.100000)" fill="#33257f" stroke="none">
<path d="M1427 2186 c-110 -45 -191 -111 -249 -200 -80 -123 -97 -261 -57 -458 21 -106 21 -182 -2 -245 -11 -33 -11 -33 -77 -33 -156 1 -222 85 -222 283 l0 91 -71 -69 c-93 -92 -175 -216 -210 -318 -83 -238 6 -539 218 -737 85 -80 158 -124 265 -161 251 -85 545 -52 749 85 120 81 232 218 288 353 44 108 56 168 55 293 -1 132 -15 196 -75 332 -55 125 -80 224 -82 321 -2 69 2 88 20 120 20 33 20 37 5 37 -24 0 -104 -25 -141 -44 -32 -17 -105 -102 -116 -136 -5 -15 -16 0 -51 70 -34 69 -62 106 -121 165 -42 41 -78 74 -80 72 -2 -2 2 -46 9 -98 10 -81 9 -107 -6 -189 -23 -128 -27 -133 -65 -80 -115 159 -99 362 41 515 27 30 46 55 42 55 -5 0 -35 -11 -67 -24z m-23 -836 l31 -65 1 -190 c0 -210 5 -233 56 -266 65 -41 197 -8 271 67 71 72 127 232 127 364 0 27 4 50 8 50 13 0 41 -69 52 -129 37 -198 -30 -429 -160 -560 -149 -148 -413 -207 -653 -145 -207 53 -358 206 -412 419 -16 63 -21 230 -7 239 5 3 19 -20 32 -51 30 -71 86 -127 152 -149 113 -37 284 3 344 81 64 84 80 233 44 405 -11 52 -20 97 -19 100 0 20 108 -118 133 -170z" fill="#33257f"/>
<path d="M2650 1165 l0 -425 270 0 270 0 0 60 0 60 -205 0 -205 0 0 365 0 365 -65 0 -65 0 0 -425z" fill="#33257f"/>
<path d="M3316 1569 c-21 -16 -26 -29 -26 -64 0 -35 5 -48 26 -64 60 -47 144 -10 144 64 0 74 -84 111 -144 64z" fill="#33257f"/>
<path d="M4480 1166 l0 -426 65 0 65 0 0 164 0 164 153 4 c133 3 157 6 193 25 86 46 127 121 127 233 0 116 -38 184 -129 230 -47 24 -58 25 -261 28 l-213 3 0 -425z m394 290 c54 -22 76 -60 76 -127 0 -53 -3 -63 -34 -97 l-34 -37 -136 -3 -136 -4 0 141 0 141 115 0 c76 0 127 -5 149 -14z" fill="#33257f"/>
<path d="M9140 1165 l0 -425 65 0 65 0 0 425 0 425 -65 0 -65 0 0 -425z" fill="#33257f"/>
<path d="M3730 1440 l0 -100 -86 0 -85 0 3 -52 3 -53 83 -3 82 -3 0 -209 0 -210 29 -32 29 -33 111 -3 111 -4 0 56 0 56 -74 0 c-58 0 -75 3 -80 16 -3 9 -6 94 -6 190 l0 174 90 0 90 0 0 55 0 55 -90 0 -90 0 0 100 0 100 -60 0 -60 0 0 -100z" fill="#33257f"/>
<path d="M6500 1440 l0 -100 -86 0 -85 0 3 -52 3 -53 83 -3 82 -3 0 -209 0 -210 29 -32 29 -33 111 -3 111 -4 0 56 0 56 -74 0 c-58 0 -75 3 -80 16 -3 9 -6 94 -6 190 l0 174 90 0 90 0 0 55 0 55 -90 0 -90 0 0 100 0 100 -60 0 -60 0 0 -100z" fill="#33257f"/>
<path d="M5879 1350 c-99 -17 -174 -72 -216 -158 -25 -50 -28 -68 -27 -152 0 -74 5 -105 21 -141 62 -138 214 -206 373 -165 90 23 148 68 188 147 33 63 34 66 30 169 -4 117 -20 161 -80 221 -65 64 -184 97 -289 79z m144 -124 c139 -58 142 -301 5 -372 -84 -43 -207 -4 -247 79 -23 47 -28 128 -11 186 28 98 152 150 253 107z" fill="#33257f"/>
<path d="M7139 1350 c-99 -17 -174 -72 -216 -158 -25 -50 -28 -68 -27 -152 0 -74 5 -105 21 -141 62 -138 214 -206 373 -165 90 23 148 68 188 147 33 63 34 66 30 169 -4 117 -20 161 -80 221 -65 64 -184 97 -289 79z m144 -124 c139 -58 142 -301 5 -372 -84 -43 -207 -4 -247 79 -23 47 -28 128 -11 186 28 98 152 150 253 107z" fill="#33257f"/>
<path d="M7889 1350 c-99 -17 -174 -72 -216 -158 -25 -50 -28 -68 -27 -152 0 -107 17 -159 73 -223 65 -73 193 -110 303 -88 100 21 170 82 213 183 l15 37 -38 10 c-93 25 -89 25 -95 -6 -27 -134 -234 -158 -317 -36 -18 26 -25 53 -28 100 -10 148 75 236 213 220 71 -7 99 -35 141 -134 0 -2 26 2 57 8 67 14 69 21 31 97 -54 109 -186 167 -325 142z" fill="#33257f"/>
<path d="M8609 1350 c-99 -17 -174 -72 -216 -158 -25 -50 -28 -68 -27 -152 0 -74 5 -105 21 -141 62 -138 214 -206 373 -165 90 23 148 68 188 147 33 63 34 66 30 169 -4 117 -20 161 -80 221 -65 64 -184 97 -289 79z m144 -124 c139 -58 142 -301 5 -372 -84 -43 -207 -4 -247 79 -23 47 -28 128 -11 186 28 98 152 150 253 107z" fill="#33257f"/>
<path d="M3310 1040 l0 -300 65 0 65 0 0 300 0 300 -65 0 -65 0 0 -300z" fill="#33257f"/>
<path d="M5220 1040 l0 -300 65 0 65 0 0 198 c0 136 4 204 13 221 22 44 62 65 132 69 l65 4 0 55 0 55 -71 -4 c-65 -3 -74 -6 -100 -36 -37 -41 -49 -40 -49 3 l0 35 -60 0 -60 0 0 -300z" fill="#33257f"/>
</g>
</svg>