<svg xmlns="http://www.w3.org/2000/svg" version="1.0" width="2560.000000pt" height="903.000000pt" viewBox="0 0 2560.000000 903.000000" preserveAspectRatio="xMidYMid meet">

<g transform="translate(0.000000,903.000000) scale(0.100000,-0.100000)" fill="#33257f" stroke="none">
<path d="M3009 7132 c-46 -12 -126 -52 -260 -129 -107 -62 -385 -222 -619 -356 -463 -266 -521 -308 -578 -415 -63 -118 -62 -104 -62 -902 0 -799 -1 -784 62 -903 62 -115 85 -131 738 -509 333 -193 634 -362 670 -376 82 -31 216 -35 300 -10 32 10 277 146 580 321 289 167 848 491 1243 720 l718 416 519 -302 520 -301 0 -607 0 -607 -520 -301 -520 -302 -277 162 c-153 88 -387 224 -520 301 l-243 141 0 324 c0 260 -3 324 -13 321 -7 -2 -140 -77 -296 -167 l-282 -164 3 -252 3 -251 39 -80 c69 -139 82 -148 726 -519 315 -181 602 -345 637 -363 126 -64 242 -76 368 -38 28 9 327 175 665 369 544 312 623 361 681 418 37 35 78 88 93 117 55 109 56 116 56 892 0 776 -1 783 -56 892 -14 28 -53 79 -87 113 -55 55 -131 102 -656 405 -327 188 -617 353 -645 366 -124 57 -273 53 -403 -11 -37 -18 -608 -346 -1268 -728 l-1200 -696 -35 21 c-19 11 -249 144 -510 295 -261 152 -481 280 -487 286 -10 7 -13 141 -13 611 l1 601 519 300 c286 165 525 299 531 297 7 -2 243 -137 525 -300 l513 -297 1 -323 c0 -183 4 -322 9 -320 5 2 137 77 295 167 l286 164 0 227 c0 200 -2 236 -20 293 -24 79 -87 175 -143 221 -46 37 -1174 691 -1272 737 -107 51 -204 60 -316 31z" fill="#33257f"/>
<path d="M13880 4995 l0 -1525 300 0 300 0 -2 1523 -3 1522 -297 3 -298 2 0 -1525z" fill="#33257f"/>
<path d="M9945 5619 c-141 -28 -271 -90 -361 -172 l-64 -59 0 106 0 106 -300 0 -300 0 0 -1490 0 -1490 300 0 300 0 0 515 0 515 28 -28 c45 -46 98 -81 169 -113 117 -53 180 -63 368 -63 151 1 181 4 270 27 483 129 760 548 739 1122 -10 259 -85 507 -202 665 -121 163 -305 288 -497 340 -92 25 -363 36 -450 19z m206 -520 c121 -39 209 -110 273 -219 59 -101 80 -186 80 -335 1 -149 -10 -206 -62 -315 -70 -148 -202 -246 -366 -270 -83 -12 -135 -9 -226 16 -71 19 -94 30 -157 77 -114 84 -185 225 -205 407 -11 98 -10 118 9 212 28 142 69 226 152 309 100 99 197 137 352 138 61 1 104 -5 150 -20z" fill="#33257f"/>
<path d="M12199 5616 c-269 -48 -500 -179 -664 -377 -47 -56 -117 -171 -146 -240 -57 -135 -81 -248 -86 -415 -8 -225 21 -372 109 -554 69 -145 175 -275 302 -370 59 -44 218 -128 291 -153 380 -130 843 -63 1125 161 44 35 150 139 180 178 286 362 303 925 41 1324 -19 30 -74 94 -121 141 -142 143 -299 231 -510 286 -79 20 -125 25 -270 28 -118 3 -200 0 -251 -9z m371 -516 c301 -90 443 -439 331 -811 -16 -52 -86 -157 -139 -207 -176 -168 -498 -169 -684 -3 -198 176 -246 549 -101 789 80 131 183 209 320 241 71 17 201 12 273 -9z" fill="#33257f"/>
<path d="M17725 5624 c-209 -44 -316 -83 -425 -158 -58 -39 -177 -158 -217 -216 -44 -65 -118 -224 -141 -305 -42 -145 -55 -264 -49 -459 6 -189 19 -271 64 -406 61 -181 163 -330 304 -442 229 -183 620 -250 909 -156 75 24 181 78 210 108 3 3 25 23 48 45 l43 40 -2 -137 c-1 -140 -15 -244 -38 -288 -29 -54 -85 -112 -134 -138 l-52 -27 -530 -5 -530 -5 0 -233 0 -233 610 4 c512 4 620 7 675 20 181 44 290 103 400 217 74 75 120 155 158 273 l27 82 3 1198 3 1197 -301 0 -300 0 0 -100 0 -99 -32 33 c-87 87 -222 154 -366 182 -67 13 -287 18 -337 8z m477 -552 c105 -52 174 -119 222 -215 54 -107 70 -182 70 -322 1 -202 -46 -328 -164 -446 -75 -74 -150 -111 -269 -130 -153 -25 -328 31 -432 140 -208 219 -209 656 -3 875 99 105 211 147 381 143 109 -3 114 -4 195 -45z" fill="#33257f"/>
<path d="M20335 5620 c-350 -53 -651 -257 -797 -540 -93 -179 -129 -329 -129 -540 -1 -249 54 -442 178 -629 198 -297 543 -470 938 -471 313 0 604 111 801 306 96 95 144 162 203 281 133 267 154 590 56 888 -94 284 -316 520 -596 631 -147 58 -242 76 -424 79 -93 2 -197 0 -230 -5z m324 -515 c182 -48 315 -186 366 -380 40 -150 27 -334 -32 -469 -120 -272 -432 -380 -703 -245 -248 124 -355 457 -246 768 56 160 160 261 326 318 78 27 206 30 289 8z" fill="#33257f"/>
<path d="M23040 5624 c-198 -40 -356 -127 -446 -248 l-44 -60 0 142 0 142 -295 0 -295 0 0 -1065 0 -1065 300 0 300 0 0 634 -1 633 27 74 c68 191 232 300 431 286 138 -9 249 -79 311 -195 62 -117 62 -113 62 -804 l0 -628 298 2 297 3 3 660 c2 423 -1 699 -8 767 -36 357 -239 614 -555 703 -59 17 -328 30 -385 19z" fill="#33257f"/>
<path d="M14740 5590 c0 -5 12 -40 26 -77 14 -38 34 -90 44 -118 48 -133 133 -365 150 -410 10 -27 44 -120 75 -205 31 -85 65 -177 75 -205 10 -27 46 -126 80 -220 35 -93 76 -206 92 -250 16 -44 33 -91 38 -105 6 -22 29 -84 131 -360 12 -30 29 -75 39 -100 17 -46 17 -46 -10 -116 -15 -38 -43 -117 -63 -174 -20 -58 -55 -157 -78 -220 -22 -63 -47 -133 -54 -155 -8 -22 -30 -85 -49 -139 -20 -55 -36 -103 -36 -108 0 -4 128 -8 284 -8 l284 0 5 23 c3 12 35 108 72 212 37 105 78 222 90 260 21 62 72 207 165 470 16 44 43 118 60 165 18 47 35 96 40 110 5 14 22 61 38 105 90 242 254 690 272 745 4 14 23 63 40 110 17 47 35 96 40 110 5 14 22 61 38 105 86 230 202 550 202 557 0 4 -137 8 -304 8 l-304 0 -57 -177 c-31 -98 -67 -209 -80 -248 -29 -87 -109 -335 -210 -650 -98 -307 -89 -288 -103 -245 -15 49 -218 678 -307 950 -41 124 -84 258 -96 298 l-23 72 -303 0 c-193 0 -303 -4 -303 -10z" fill="#33257f"/>
</g>
</svg>