<?xml version="1.0" encoding="UTF-8"?>
<svg version="1.1" xmlns="http://www.w3.org/2000/svg" width="480" height="144">
<path d="M0 0 C10.20220899 8.03442907 18.18161207 18.0698723 21 31 C22.4976833 48.76562255 19.32034711 62.08652441 8 76 C-6.07745771 91.43060288 -27.97180796 100.36312658 -48.61328125 101.3203125 C-60.87556172 101.66399407 -71.35318509 101.60265436 -81.4375 93.875 C-86.55558089 88.95659783 -89.08530418 82.75028821 -89.5 75.6875 C-88.91647979 65.03355037 -84.58238679 56.19100379 -78 48 C-79.60875 47.6596875 -79.60875 47.6596875 -81.25 47.3125 C-85.9846179 45.65538374 -87.79875037 43.40249925 -90 39 C-91.00489971 27.66604914 -88.93617604 18.81040197 -81.73828125 9.93359375 C-61.5098645 -12.56767882 -24.92320056 -18.1773748 0 0 Z M-43 31 C-44.61386527 35.84159581 -44.83616487 40.20821813 -42.6875 44.8125 C-41.8521875 45.8953125 -41.8521875 45.8953125 -41 47 C-40.608125 47.598125 -40.21625 48.19625 -39.8125 48.8125 C-37.3082405 50.45322174 -34.94740798 50.52726214 -32.00390625 50.4296875 C-28.64067274 49.70852632 -27.05698409 47.61797976 -25 45 C-23.11437735 41.22875471 -23.37104435 37.0973713 -24 33 C-25.47093394 29.9224371 -27.15479622 27.88878221 -30 26 C-35.88515084 24.23330754 -39.320876 26.20598995 -43 31 Z M-12 31 C-13.85269921 34.70539842 -13.46444489 38.95623313 -13 43 C-11.68882399 46.11326625 -10.09390848 48.45304576 -7 50 C-1.86030185 50.77646169 -1.86030185 50.77646169 2.6015625 48.73046875 C6.11170259 44.5121425 7.34891231 41.58779523 7.2890625 36.1015625 C6.82122304 32.70024318 5.15733871 30.58880645 3 28 C-3.19158708 23.87227528 -7.53850971 25.48874729 -12 31 Z " fill="#37277E" transform="translate(99,10)"/>
<path d="M0 0 C1.32380173 -0.01210762 1.32380173 -0.01210762 2.67434692 -0.02445984 C4.5524091 -0.03832828 6.43049677 -0.04903801 8.30859375 -0.05688477 C11.14894644 -0.07394033 13.98808666 -0.11778021 16.828125 -0.16210938 C30.60956969 -0.28264812 40.80463611 0.78622475 51.15234375 10.72265625 C59.20006068 20.06090797 59.98040846 30.28810911 59.48632812 42.09033203 C58.76577867 51.41297039 53.05915372 58.16665203 46.3203125 64.23828125 C43.74901378 65.99359588 41.2632305 67.23920946 38.3203125 68.23828125 C37.35222656 68.59664063 36.38414062 68.955 35.38671875 69.32421875 C29.85105922 70.8733772 24.07839956 70.44746844 18.3828125 70.36328125 C17.22201172 70.35425781 16.06121094 70.34523438 14.86523438 70.3359375 C12.01671142 70.31249287 9.16862172 70.27967647 6.3203125 70.23828125 C6.32816772 71.63904907 6.32816772 71.63904907 6.33618164 73.06811523 C6.3531887 76.52140921 6.36574552 79.97465892 6.37524414 83.42797852 C6.38028371 84.92473043 6.38711537 86.42147741 6.39575195 87.91821289 C6.40783409 90.06527932 6.41354441 92.21228087 6.41796875 94.359375 C6.42582397 96.29961548 6.42582397 96.29961548 6.43383789 98.27905273 C6.3203125 101.23828125 6.3203125 101.23828125 5.3203125 102.23828125 C2.98871195 102.33737427 0.65401308 102.36798629 -1.6796875 102.36328125 C-2.9584375 102.36585937 -4.2371875 102.3684375 -5.5546875 102.37109375 C-8.6796875 102.23828125 -8.6796875 102.23828125 -9.6796875 101.23828125 C-9.78035784 98.13857361 -9.8158305 95.06110454 -9.80908203 91.9609375 C-9.81083435 90.98704071 -9.81258667 90.01314392 -9.81439209 89.00973511 C-9.81881249 85.77339931 -9.81587195 82.53711765 -9.8125 79.30078125 C-9.81317299 77.06258127 -9.81414296 74.82438137 -9.81539917 72.58618164 C-9.8168764 67.88850206 -9.81472079 63.19084145 -9.81005859 58.49316406 C-9.8043613 52.45667511 -9.80764017 46.42023061 -9.81363106 40.38374329 C-9.817236 35.75996564 -9.81609839 31.13619861 -9.81350327 26.51242065 C-9.81283381 24.28595983 -9.81366306 22.05949805 -9.81598282 19.83303833 C-9.81850824 16.7272077 -9.8146703 13.62145015 -9.80908203 10.515625 C-9.81110626 9.58571747 -9.81313049 8.65580994 -9.81521606 7.69772339 C-9.78632161 -0.92345232 -7.88711261 0.06797078 0 0 Z M6.3203125 16.23828125 C6.3203125 28.77828125 6.3203125 41.31828125 6.3203125 54.23828125 C22.90400583 55.32541439 22.90400583 55.32541439 37.1953125 48.92578125 C41.39235319 43.6177592 42.89469518 39.49464954 42.671875 32.76953125 C41.93209981 27.44314986 39.71158026 23.62954901 35.9453125 19.86328125 C29.59000567 15.92904369 23.68777748 15.98669215 16.4453125 16.11328125 C13.1040625 16.15453125 9.7628125 16.19578125 6.3203125 16.23828125 Z " fill="#33257F" transform="translate(168.6796875,14.76171875)"/>
<path d="M0 0 C5.28 0 10.56 0 16 0 C19.29072467 6.26928573 21.87338497 12.64471859 24.328125 19.28125 C24.72199402 20.33534058 25.11586304 21.38943115 25.52166748 22.47546387 C26.76859927 25.81544425 28.00938791 29.15766774 29.25 32.5 C30.09855234 34.77619306 30.94750655 37.05223635 31.796875 39.328125 C33.86923574 44.8836924 35.9365687 50.44111031 38 56 C40.74329694 49.30586549 43.25809188 42.56622203 45.6015625 35.72265625 C46.2629222 33.8092107 46.92438341 31.89580023 47.5859375 29.98242188 C48.61223964 27.00500972 49.63714826 24.02712965 50.66015625 21.04858398 C51.65777907 18.14699041 52.66060157 15.24723503 53.6640625 12.34765625 C54.12191635 11.00707909 54.12191635 11.00707909 54.58901978 9.63941956 C54.87626923 8.81103073 55.16351868 7.98264191 55.45947266 7.12915039 C55.70944 6.40208389 55.95940735 5.6750174 56.21694946 4.92591858 C57 3 57 3 59 0 C61.7885289 -0.22107787 64.34653181 -0.28107535 67.125 -0.1875 C67.87910156 -0.17396484 68.63320313 -0.16042969 69.41015625 -0.14648438 C71.27374127 -0.11109985 73.13695978 -0.05729167 75 0 C74.56614927 6.02103998 73.51315991 11.1698983 71.25390625 16.7578125 C70.97118866 17.48330292 70.68847107 18.20879333 70.39718628 18.95626831 C69.46210162 21.34982402 68.51223012 23.73722213 67.5625 26.125 C66.89665675 27.8224421 66.23205297 29.52037085 65.56860352 31.21875 C64.51143729 33.92429388 63.45333584 36.62943965 62.39128113 39.33306885 C59.62708835 46.37196179 56.90873687 53.42760108 54.2109375 60.4921875 C53.81255173 61.5353714 53.41416595 62.5785553 53.00370789 63.65335083 C51.81453638 66.76873456 50.62596234 69.88434568 49.4375 73 C35.51814857 109.48185143 35.51814857 109.48185143 34 111 C31.66839945 111.09909302 29.33370058 111.12970504 27 111.125 C25.72125 111.12757813 24.4425 111.13015625 23.125 111.1328125 C20 111 20 111 19 110 C19.42537419 102.0381048 22.37914734 95.21216549 25.29296875 87.86914062 C25.65261719 86.92876953 26.01226562 85.98839844 26.3828125 85.01953125 C26.71684082 84.17495361 27.05086914 83.33037598 27.39501953 82.46020508 C28.6730147 77.26312787 26.19496771 72.59584719 24.296875 67.796875 C24.02245575 67.0937619 23.7480365 66.3906488 23.46530151 65.66622925 C22.87270698 64.14974489 22.27818905 62.63401101 21.6819458 61.11895752 C20.74107992 58.72732562 19.80620803 56.33342222 18.87255859 53.93896484 C15.98735978 46.55041776 13.07808895 39.17220637 10.11486816 31.8145752 C8.90240494 28.80359583 7.69647158 25.79001599 6.49035645 22.77648926 C5.63904581 20.65992135 4.77627327 18.54826964 3.91308594 16.43652344 C3.392032 15.13758873 2.87149555 13.83844628 2.3515625 12.5390625 C1.89604004 11.41709473 1.44051758 10.29512695 0.97119141 9.13916016 C0 6 0 6 0 0 Z " fill="#33257F" transform="translate(396,33)"/>
<path d="M0 0 C5.28 0 10.56 0 16 0 C18.81195537 5.40009429 21.12323101 10.73336238 23.09375 16.48828125 C23.3671521 17.27212692 23.6405542 18.0559726 23.92224121 18.86357117 C24.78656144 21.3448211 25.64352614 23.82853214 26.5 26.3125 C27.35612674 28.77949043 28.2137754 31.24594811 29.0715332 33.71237183 C29.62281043 35.29801942 30.17344156 36.88389181 30.72338867 38.47000122 C32.75888366 44.33428111 34.84808495 50.17731446 37 56 C38.66271549 53.50592676 39.5674327 51.7238775 40.54052734 48.96264648 C40.82777679 48.15427841 41.11502625 47.34591034 41.41098022 46.51304626 C41.71621613 45.64120193 42.02145203 44.7693576 42.3359375 43.87109375 C42.65656158 42.96682144 42.97718567 42.06254913 43.30752563 41.13087463 C44.33392951 38.23444961 45.35481625 35.33612114 46.375 32.4375 C47.38875922 29.56413527 48.40375143 26.69122032 49.42105103 23.81910706 C50.05330329 22.0333848 50.68347012 20.24692222 51.31112671 18.45957947 C57.20031016 1.79968984 57.20031016 1.79968984 59 0 C61.69654854 -0.07319621 64.36691458 -0.09242537 67.0625 -0.0625 C67.82111328 -0.05798828 68.57972656 -0.05347656 69.36132812 -0.04882812 C71.24091871 -0.0370068 73.12046899 -0.01907078 75 0 C74.49990639 6.53320668 73.23097108 11.90449252 70.82421875 17.9765625 C70.50262787 18.81311371 70.18103699 19.64966492 69.84970093 20.51156616 C68.80572214 23.22007275 67.74684812 25.92247223 66.6875 28.625 C65.96250293 30.49702535 65.23847127 32.36942486 64.51538086 34.2421875 C63.0554734 38.01824561 61.58957851 41.79188775 60.11816406 45.56347656 C58.16704624 50.56588348 56.23262012 55.57455684 54.3046875 60.5859375 C52.26118785 65.89244288 50.21605027 71.19828213 48.16015625 76.5 C47.56666382 78.03140625 47.56666382 78.03140625 46.96118164 79.59375 C46 82 46 82 45 84 C40.05 84 35.1 84 30 84 C23.82609857 68.74669998 17.86318011 53.41438951 11.99707031 38.04052734 C10.99009161 35.40300567 9.97736808 32.76779351 8.95996094 30.13427734 C7.47249932 26.28385787 6.00130072 22.42741343 4.53125 18.5703125 C4.07512329 17.3953421 3.61899658 16.2203717 3.14904785 15.00979614 C2.73441284 13.91359955 2.31977783 12.81740295 1.89257812 11.68798828 C1.52588013 10.73127228 1.15918213 9.77455627 0.78137207 8.78884888 C0 6 0 6 0 0 Z " fill="#33257F" transform="translate(318,33)"/>
<path d="M0 0 C0.87443756 -0.00570007 1.74887512 -0.01140015 2.64981079 -0.01727295 C4.49357926 -0.02666205 6.33736405 -0.03323248 8.18115234 -0.03710938 C10.93488789 -0.04672941 13.68784785 -0.07777598 16.44140625 -0.109375 C31.35417367 -0.19850678 48.12418933 -0.02387221 61.6015625 7.203125 C62.6015625 8.203125 62.6015625 8.203125 62.6640625 10.765625 C62.6434375 11.57 62.6228125 12.374375 62.6015625 13.203125 C51.52000824 20.85467437 36.32101756 21.33764739 23.203125 21.40625 C22.32868744 21.41195007 21.45424988 21.41765015 20.55331421 21.42352295 C18.70954574 21.43291205 16.86576095 21.43948248 15.02197266 21.44335938 C12.26823711 21.45297941 9.51527715 21.48402598 6.76171875 21.515625 C-8.15104867 21.60475678 -24.92106433 21.43012221 -38.3984375 14.203125 C-39.3984375 13.203125 -39.3984375 13.203125 -39.4609375 10.640625 C-39.4403125 9.83625 -39.4196875 9.031875 -39.3984375 8.203125 C-28.31688324 0.55157563 -13.11789256 0.06860261 0 0 Z " fill="#33257F" transform="translate(54.3984375,122.796875)"/>
<path d="M0 0 C1.50046875 0.00386719 1.50046875 0.00386719 3.03125 0.0078125 C4.0315625 0.00523438 5.031875 0.00265625 6.0625 0 C8.53125 0.1328125 8.53125 0.1328125 9.53125 1.1328125 C9.76317865 2.64750698 9.94340238 4.17035812 10.09375 5.6953125 C10.17753906 6.52160156 10.26132813 7.34789062 10.34765625 8.19921875 C10.40824219 8.83730469 10.46882812 9.47539063 10.53125 10.1328125 C11.0159375 9.66230469 11.500625 9.19179688 12 8.70703125 C20.34995019 0.95121213 26.27999372 -0.21502957 37.65234375 -0.0703125 C40.53125 0.1328125 40.53125 0.1328125 41.53125 1.1328125 C41.63034302 3.46441305 41.66095504 5.79911192 41.65625 8.1328125 C41.66011719 10.0509375 41.66011719 10.0509375 41.6640625 12.0078125 C41.53125 15.1328125 41.53125 15.1328125 40.53125 16.1328125 C38.34745888 16.43208374 36.15889822 16.69680151 33.96875 16.9453125 C24.36385197 18.25093426 24.36385197 18.25093426 16.9765625 24.03125 C13.73496265 28.9577492 12.43001706 33.0618072 12.34179688 38.96142578 C12.32507935 39.91566437 12.30836182 40.86990295 12.2911377 41.85305786 C12.27756226 42.87608002 12.26398682 43.89910217 12.25 44.953125 C12.23159058 46.00813202 12.21318115 47.06313904 12.19421387 48.15011597 C12.11553786 52.66459026 12.0476505 57.17921143 11.97900391 61.69384766 C11.92736665 64.98868383 11.87009621 68.2833885 11.8125 71.578125 C11.79892456 72.60519562 11.78534912 73.63226624 11.7713623 74.69046021 C11.75464478 75.63839447 11.73792725 76.58632874 11.72070312 77.56298828 C11.70817505 78.39919708 11.69564697 79.23540588 11.68273926 80.09695435 C11.53125 82.1328125 11.53125 82.1328125 10.53125 84.1328125 C8.38548363 84.15967188 6.23962355 84.17914338 4.09375 84.1953125 C2.89878906 84.20691406 1.70382813 84.21851562 0.47265625 84.23046875 C-2.46875 84.1328125 -2.46875 84.1328125 -3.46875 83.1328125 C-3.56912731 80.58229776 -3.60492487 78.05884071 -3.59814453 75.5078125 C-3.59989685 74.70947998 -3.60164917 73.91114746 -3.60345459 73.08862305 C-3.60787367 70.4366644 -3.60493492 67.78477188 -3.6015625 65.1328125 C-3.60223552 63.29817695 -3.60320553 61.46354149 -3.60446167 59.62890625 C-3.60593872 55.77863722 -3.60378386 51.92839134 -3.59912109 48.078125 C-3.5934238 43.13124753 -3.59670277 38.18442431 -3.60269356 33.23754883 C-3.60629898 29.44758695 -3.60516067 25.65763804 -3.60256577 21.86767578 C-3.60189644 20.04313145 -3.6027251 18.21858595 -3.60504532 16.39404297 C-3.60757154 13.84860089 -3.6037317 11.30324791 -3.59814453 8.7578125 C-3.60118088 7.61542114 -3.60118088 7.61542114 -3.60427856 6.44995117 C-3.57870226 0.19252512 -3.57870226 0.19252512 0 0 Z " fill="#33257F" transform="translate(240.46875,32.8671875)"/>
<path d="M0 0 C1.1859375 0.00257812 2.371875 0.00515625 3.59375 0.0078125 C4.7796875 0.00523438 5.965625 0.00265625 7.1875 0 C10.09375 0.1328125 10.09375 0.1328125 11.09375 1.1328125 C11.19412731 3.68332724 11.22992487 6.20678429 11.22314453 8.7578125 C11.22489685 9.55614502 11.22664917 10.35447754 11.22845459 11.17700195 C11.23287367 13.8289606 11.22993492 16.48085312 11.2265625 19.1328125 C11.22723552 20.96744805 11.22820553 22.80208351 11.22946167 24.63671875 C11.23093872 28.48698778 11.22878386 32.33723366 11.22412109 36.1875 C11.2184238 41.13437747 11.22170277 46.08120069 11.22769356 51.02807617 C11.23129898 54.81803805 11.23016067 58.60798696 11.22756577 62.39794922 C11.22689644 64.22249355 11.2277251 66.04703905 11.23004532 67.87158203 C11.23257154 70.41702411 11.2287317 72.96237709 11.22314453 75.5078125 C11.22516876 76.26940674 11.22719299 77.03100098 11.22927856 77.81567383 C11.20801258 83.01854992 11.20801258 83.01854992 10.09375 84.1328125 C7.92894203 84.2317419 5.76081215 84.2625235 3.59375 84.2578125 C2.4078125 84.26039062 1.221875 84.26296875 0 84.265625 C-2.90625 84.1328125 -2.90625 84.1328125 -3.90625 83.1328125 C-4.00662731 80.58229776 -4.04242487 78.05884071 -4.03564453 75.5078125 C-4.03739685 74.70947998 -4.03914917 73.91114746 -4.04095459 73.08862305 C-4.04537367 70.4366644 -4.04243492 67.78477188 -4.0390625 65.1328125 C-4.03973552 63.29817695 -4.04070553 61.46354149 -4.04196167 59.62890625 C-4.04343872 55.77863722 -4.04128386 51.92839134 -4.03662109 48.078125 C-4.0309238 43.13124753 -4.03420277 38.18442431 -4.04019356 33.23754883 C-4.04379898 29.44758695 -4.04266067 25.65763804 -4.04006577 21.86767578 C-4.03939644 20.04313145 -4.0402251 18.21858595 -4.04254532 16.39404297 C-4.04507154 13.84860089 -4.0412317 11.30324791 -4.03564453 8.7578125 C-4.03868088 7.61542114 -4.03868088 7.61542114 -4.04177856 6.44995117 C-4.01616551 0.18353445 -4.01616551 0.18353445 0 0 Z " fill="#33257F" transform="translate(297.90625,32.8671875)"/>
</svg>
