<svg xmlns="http://www.w3.org/2000/svg" version="1.0" width="2000.000000pt" height="886.000000pt" viewBox="0 0 2000.000000 886.000000" preserveAspectRatio="xMidYMid meet">

<g transform="translate(0.000000,886.000000) scale(0.100000,-0.100000)" fill="#33257f" stroke="none">
<path d="M4334 6190 c-5 -5 -36 -10 -69 -11 -33 -2 -65 -7 -72 -12 -7 -5 -17 -6 -23 -2 -6 4 -16 2 -23 -3 -7 -5 -37 -19 -67 -30 -81 -30 -139 -60 -191 -98 -25 -18 -49 -30 -53 -26 -4 4 -6 2 -4 -3 1 -6 -16 -28 -40 -49 -67 -61 -138 -156 -187 -252 -25 -49 -46 -90 -46 -91 1 -2 1 -4 0 -5 0 -2 -2 -15 -4 -31 -2 -15 -11 -41 -19 -58 -9 -17 -13 -42 -10 -59 4 -15 1 -31 -5 -34 -15 -9 -15 -202 0 -212 6 -3 8 -17 5 -29 -3 -13 -2 -26 3 -29 7 -5 17 -38 27 -91 1 -5 3 -13 4 -17 1 -5 3 -11 4 -15 1 -5 4 -12 8 -18 3 -5 23 -41 43 -80 21 -38 43 -77 50 -85 8 -8 15 -21 17 -29 2 -8 22 -32 45 -54 24 -21 40 -44 36 -50 -3 -5 -1 -7 4 -4 6 4 17 -1 24 -10 8 -9 32 -29 53 -45 49 -35 95 -37 133 -4 24 20 28 32 28 73 0 47 -3 53 -64 119 -148 161 -211 303 -213 477 -3 279 181 526 466 624 l81 28 1153 0 1154 0 34 -37 34 -38 0 -935 c0 -514 1 -935 3 -935 4 0 161 -57 180 -65 16 -7 17 41 17 994 l-1 1001 -25 48 c-38 70 -113 137 -176 157 -29 9 -61 20 -70 26 -24 13 -2231 12 -2244 -1z" fill="#33257f"/>
<path d="M4030 5431 l0 -100 63 -3 62 -3 2 -1071 c1 -589 4 -1077 7 -1085 7 -23 30 -133 31 -145 0 -6 8 -22 18 -37 9 -14 17 -31 17 -36 0 -5 17 -31 38 -58 21 -26 37 -54 34 -62 -3 -8 0 -11 5 -8 5 3 31 -12 58 -34 45 -36 185 -114 185 -103 0 3 10 -1 23 -8 12 -7 28 -11 35 -9 8 1 19 -3 27 -9 7 -6 24 -8 38 -5 14 4 28 2 31 -4 10 -15 1872 -15 1881 0 4 6 14 8 22 5 9 -4 22 -1 30 5 7 7 16 9 20 6 3 -4 12 -2 20 5 7 6 16 8 20 4 3 -3 15 1 25 11 10 9 18 13 18 10 0 -4 21 7 46 23 26 16 51 27 57 23 6 -3 7 -1 3 5 -6 11 27 36 36 27 3 -3 19 13 36 34 18 22 41 43 53 46 12 4 18 12 15 21 -3 7 3 18 12 23 9 5 17 13 17 18 0 4 4 7 9 5 5 -2 6 4 3 12 -3 8 7 35 23 60 16 25 27 46 24 46 -3 0 2 10 10 21 8 12 12 27 10 34 -3 7 -1 16 5 19 6 4 8 13 4 21 -3 9 -1 21 5 28 15 19 23 65 12 72 -13 8 -13 68 1 82 8 8 6 21 -6 47 -10 20 -15 40 -11 43 3 3 1 11 -4 18 -5 6 -11 20 -13 31 -1 10 -6 25 -10 32 -5 6 -5 12 -2 12 4 0 -2 12 -13 28 -21 29 -37 72 -34 85 1 5 -2 6 -7 2 -6 -3 -15 4 -21 15 -6 11 -8 20 -5 20 3 0 -32 34 -77 75 -84 77 -177 131 -268 157 -35 9 -263 13 -985 15 l-940 3 -50 -28 c-35 -19 -57 -40 -75 -72 -24 -43 -25 -52 -25 -220 0 -167 1 -177 25 -225 16 -31 41 -61 68 -80 39 -27 52 -30 142 -33 l100 -4 0 105 0 106 -62 3 -63 3 0 115 0 115 80 -1 c65 -1 90 -6 131 -27 79 -40 145 -111 189 -202 36 -75 38 -86 39 -175 0 -87 -3 -101 -32 -161 -98 -202 -292 -295 -510 -244 -34 8 -79 26 -100 39 -50 32 -135 122 -163 171 -56 101 -53 49 -59 1245 -5 1075 -6 1106 -24 1131 -44 57 -63 64 -188 67 l-118 4 0 -101z" fill="#33257f"/>
<path d="M4740 5390 l0 -100 658 0 c361 0 666 3 678 6 28 7 54 55 54 99 0 27 -8 44 -29 66 l-29 29 -666 0 -666 0 0 -100z" fill="#33257f"/>
<path d="M8326 5442 c-3 -5 -32 -12 -65 -15 -77 -8 -199 -56 -286 -112 -66 -43 -166 -164 -187 -228 -6 -17 -15 -37 -20 -44 -5 -6 -14 -52 -20 -103 -12 -96 0 -252 22 -274 5 -5 10 -17 10 -26 0 -32 77 -135 131 -176 69 -53 151 -96 214 -114 28 -7 55 -17 60 -21 6 -4 48 -13 95 -19 47 -7 94 -16 105 -20 11 -5 60 -13 110 -20 49 -6 94 -15 100 -19 5 -5 28 -12 50 -15 87 -15 193 -89 215 -150 6 -17 16 -40 22 -50 13 -24 12 -158 -1 -183 -5 -10 -17 -38 -27 -62 -22 -53 -120 -136 -179 -152 -22 -6 -46 -16 -54 -22 -17 -15 -253 -16 -272 -1 -8 6 -34 16 -57 23 -119 34 -241 176 -266 308 -7 42 -20 73 -35 89 -21 22 -30 24 -120 24 -121 -1 -131 -7 -131 -83 0 -58 17 -155 30 -172 4 -5 11 -21 15 -35 16 -54 99 -172 161 -228 64 -58 199 -135 259 -148 17 -4 35 -10 40 -15 19 -14 219 -26 320 -19 88 6 232 39 260 59 6 4 26 14 45 21 58 23 116 67 175 133 30 34 55 66 55 70 0 5 8 21 19 35 10 15 22 43 26 62 4 19 12 41 19 49 7 9 11 70 11 175 0 134 -3 166 -18 191 -9 17 -17 37 -17 45 0 28 -77 136 -122 173 -50 41 -173 107 -199 107 -10 0 -20 4 -23 9 -4 5 -39 15 -79 22 -39 7 -76 15 -82 19 -5 4 -59 13 -120 20 -60 7 -114 16 -120 20 -5 4 -31 10 -57 13 -64 9 -167 51 -212 89 -20 17 -49 49 -64 72 -23 36 -27 51 -27 121 0 64 5 90 23 128 41 81 157 168 252 188 60 12 220 17 226 7 3 -4 17 -8 31 -8 43 0 134 -52 186 -105 57 -59 92 -125 108 -207 8 -42 18 -62 33 -70 29 -16 221 -15 241 2 25 21 18 140 -14 215 -60 140 -130 231 -235 304 -41 28 -78 51 -82 51 -4 0 -26 9 -48 19 -23 11 -75 27 -116 37 -83 19 -305 30 -314 16z" fill="#33257f"/>
<path d="M14446 5408 c-12 -16 -16 -46 -16 -109 0 -126 3 -128 155 -131 l120 -3 3 -884 c2 -806 4 -886 19 -903 15 -17 41 -18 382 -18 213 0 372 4 381 10 11 7 16 34 18 107 6 152 19 145 -264 147 l-229 1 -5 845 c-6 939 -1 881 -72 932 -32 22 -41 23 -255 26 -220 3 -221 3 -237 -20z" fill="#33257f"/>
<path d="M15438 5419 c-15 -9 -18 -26 -18 -117 0 -71 4 -112 12 -120 8 -8 53 -12 135 -12 l123 0 0 -877 c0 -688 3 -883 13 -903 l13 -25 373 -3 c268 -2 378 1 387 9 10 8 14 40 14 120 l0 109 -27 11 c-17 7 -107 10 -228 9 -111 0 -208 2 -218 6 -16 6 -17 62 -17 839 0 545 -3 836 -10 840 -5 3 -10 14 -10 24 0 23 -47 72 -83 89 -35 15 -433 17 -459 1z" fill="#33257f"/>
<path d="M10100 4993 c-67 -4 -194 -24 -205 -33 -5 -4 -28 -13 -50 -20 -37 -12 -175 -98 -220 -137 -32 -28 -105 -120 -105 -131 0 -6 -6 -15 -12 -19 -7 -4 -24 -30 -37 -58 -13 -27 -29 -62 -36 -77 -7 -15 -19 -53 -25 -85 -7 -32 -17 -69 -24 -82 -14 -31 -14 -344 0 -363 6 -7 17 -42 24 -78 15 -69 71 -186 125 -260 66 -89 187 -189 265 -220 19 -7 40 -17 45 -21 6 -3 26 -10 45 -14 19 -4 40 -11 45 -15 6 -4 17 -8 25 -9 8 -1 56 -6 105 -11 93 -9 280 2 313 18 9 5 33 12 52 16 104 20 284 149 348 250 60 96 93 172 99 230 9 81 1 86 -147 86 -108 0 -118 -2 -137 -22 -11 -13 -24 -34 -28 -48 -22 -78 -145 -198 -223 -216 -15 -4 -33 -12 -41 -18 -20 -16 -266 -15 -282 2 -7 6 -20 12 -29 12 -22 0 -99 52 -149 100 -53 52 -82 100 -117 190 -25 69 -28 87 -28 217 -1 101 3 146 12 155 6 6 12 21 12 32 0 12 17 55 37 96 39 80 121 170 177 194 17 8 48 21 69 30 48 22 186 31 258 18 142 -27 263 -121 301 -235 6 -17 20 -42 31 -54 19 -21 29 -23 136 -23 81 1 121 5 134 14 24 18 22 85 -3 144 -53 121 -79 160 -162 244 -70 71 -101 95 -162 123 -42 19 -82 35 -89 35 -7 0 -17 4 -23 10 -18 18 -220 38 -324 33z" fill="#33257f"/>
<path d="M4740 4885 l0 -105 781 2 781 3 29 33 c20 22 29 43 29 67 0 24 -9 45 -29 67 l-29 33 -781 3 -781 2 0 -105z" fill="#33257f"/>
<path d="M13385 4979 c-27 -5 -58 -14 -67 -19 -10 -6 -22 -10 -28 -10 -22 0 -120 -52 -176 -93 -123 -91 -235 -239 -265 -350 -6 -23 -15 -51 -20 -62 -39 -95 -39 -488 1 -540 4 -5 11 -25 15 -43 13 -62 103 -216 163 -280 71 -74 232 -172 307 -186 22 -4 46 -13 54 -19 9 -8 71 -12 185 -12 174 0 223 3 241 16 6 4 26 10 45 14 43 8 137 55 212 107 53 35 172 163 186 198 3 8 18 35 32 61 15 25 33 63 39 85 7 21 16 48 21 59 39 90 39 489 0 540 -4 6 -11 25 -15 44 -11 54 -87 188 -135 241 -8 9 -32 35 -53 59 -33 35 -62 58 -131 103 -6 4 -38 19 -71 33 -33 15 -69 31 -80 36 -61 28 -341 39 -460 18z m360 -297 c22 -12 44 -22 48 -22 14 0 109 -79 139 -115 16 -18 39 -57 53 -87 15 -29 30 -61 36 -71 21 -38 33 -212 21 -307 -6 -51 -15 -97 -20 -103 -5 -7 -14 -31 -21 -53 -30 -96 -145 -210 -256 -255 -52 -21 -76 -24 -175 -24 -100 1 -120 4 -155 23 -22 12 -45 22 -51 22 -7 0 -46 32 -87 70 -97 91 -157 207 -157 307 0 17 -4 35 -10 38 -13 8 -13 142 0 150 6 4 10 14 9 23 -10 68 63 225 141 303 56 57 142 106 210 120 19 5 80 7 135 5 80 -2 108 -7 140 -24z" fill="#33257f"/>
<path d="M12155 4939 c-33 -5 -67 -9 -75 -10 -16 -1 -28 -5 -111 -43 -36 -16 -73 -44 -102 -76 l-45 -50 -7 31 c-4 17 -26 51 -49 75 -42 43 -60 50 -131 47 -11 -1 -126 -2 -256 -3 -281 -1 -263 9 -258 -143 5 -136 -2 -131 214 -135 l175 -3 -2 -492 -3 -492 -191 -5 c-243 -6 -234 -1 -234 -145 0 -86 3 -104 18 -118 17 -15 75 -17 626 -17 l606 0 11 28 c15 37 8 217 -9 234 -10 10 -76 14 -260 18 l-247 5 0 316 c0 216 3 320 11 330 6 8 14 29 17 47 20 102 113 214 230 276 114 61 231 68 421 27 45 -10 52 -9 73 11 21 20 23 29 23 129 l0 108 -30 21 c-17 12 -57 25 -93 31 -74 10 -238 9 -322 -2z" fill="#33257f"/>
<path d="M4740 4385 l0 -105 666 0 666 0 29 29 c51 51 36 131 -31 166 -25 13 -122 15 -680 15 l-650 0 0 -105z" fill="#33257f"/>
</g>
</svg>